Thanks to publicHD for the original up, i just reencoded it to a smaller size.  Hope 

you guys enjoy :)




 
http://www.imdb.com/title/tt1446714/











Format : MPEG-4
Format profile : Base Media / Version 2
Codec ID : mp42
File size : 1.42 GiB
Duration : 2h 3mn
Overall bit rate mode : Variable
Overall bit rate : 1 639 Kbps
Encoded date : UTC 2012-09-20 04:10:41
Tagged date : UTC 2012-09-20 05:30:05
Writing application : HandBrake 0.9.8 2012071800

Video
ID : 1
Format : AVC
Format/Info : Advanced Video Codec
Format profile : Main@L4.0
Format settings, CABAC : Yes
Format settings, ReFrames : 4 frames
Codec ID : avc1
Codec ID/Info : Advanced Video Coding
Duration : 2h 3mn
Bit rate mode : Variable
Bit rate : 1 469 Kbps
Width : 1 920 pixels
Height : 800 pixels
Display aspect ratio : 2.40:1
Frame rate mode : Variable
Frame rate : 23.976 fps
Minimum frame rate : 23.810 fps
Maximum frame rate : 24.390 fps
Color space : YUV
Chroma subsampling : 4:2:0
Bit depth : 8 bits
Scan type : Progressive
Bits/(Pixel*Frame) : 0.040
Stream size : 1.27 GiB (90%)
Writing library : x264 core 120
Encoded date : UTC 2012-09-20 04:10:41
Tagged date : UTC 2012-09-20 05:30:05
Color primaries : BT.709-5, BT.1361, IEC 61966-2-4, SMPTE RP177
Transfer characteristics : BT.709-5, BT.1361
Matrix coefficients : BT.709-5, BT.1361, IEC 61966-2-4 709, SMPTE RP177

Audio
ID : 2
Format : AAC
Format/Info : Advanced Audio Codec
Format profile : LC
Codec ID : 40
Duration : 2h 3mn
Bit rate mode : Variable
Bit rate : 164 Kbps
Maximum bit rate : 281 Kbps
Channel(s) : 2 channels
Channel positions : Front: L R
Sampling rate : 48.0 KHz
Compression mode : Lossy
Stream size : 145 MiB (10%)
Language : English
Encoded date : UTC 2012-09-20 04:10:41
Tagged date : UTC 2012-09-20 05:30:05











If you have any requests please leave them at my Suprbay forum, from now on i 

will disregard any requests left on here


  https://forum.suprbay.org/showthread.php?tid=130110






                                ENCODED BY THE HAMBURGLER


Please Comment On Quality And Seed

Sharing Is Caring
